<svg width="56" height="53" viewBox="0 0 56 53" fill="none" xmlns="http://www.w3.org/2000/svg">
<path d="M55.25 48.2422L38.7706 32.4873C41.4264 28.9988 42.855 24.7945 42.8506 20.4801C42.8506 9.1876 33.239 0 21.4253 0C9.61164 0 0 9.1876 0 20.4801C0 31.7726 9.61164 40.9602 21.4253 40.9602C25.9388 40.9643 30.3372 39.5987 33.9867 37.0602L50.4688 52.8125L55.25 48.2422ZM21.4253 34.4919C18.5258 34.4921 15.6912 33.6705 13.2802 32.1308C10.8692 30.5911 8.99004 28.4026 7.88031 25.842C6.77058 23.2814 6.48015 20.4637 7.04576 17.7453C7.61137 15.0269 9.00761 12.5299 11.0579 10.5701C13.1082 8.61022 15.7205 7.27558 18.5643 6.73492C21.4082 6.19426 24.3559 6.47187 27.0347 7.53265C29.7135 8.59342 32.003 10.3897 33.6138 12.6943C35.2245 14.999 36.0841 17.7084 36.0838 20.4801C36.0793 24.1949 34.5334 27.7563 31.7854 30.3831C29.0374 33.0099 25.3116 34.4875 21.4253 34.4919Z" fill="black"/>
</svg>
